<svg width="31" height="44" viewBox="0 0 31 44" fill="none" xmlns="http://www.w3.org/2000/svg">
<path d="M10 42H8V41H7V40H6V38H5V36H4V28H5V34H10V35H23V36H27V37H28V36H29V35H30V37H29V39H28V41H27V42H25V43H22V42H24V41H26V40H27V38H26V37H22V36H9V35H6V37H7V39H8V40H9V41H11V42H14V43H22V44H13V43H10V42ZM14 1H15V2H21V1H22V0H28V1H23V2H22V3H17V4H15V3H14V2H13V1H12V2H11V5H13V11H12V12H13V14H12V15H11V19H12V20H13V23H12V24H16V23H17V22H16V18H17V20H21V18H22V19H23V22H24V24H27V23H28V22H29V21H28V19H27V14H24V15H23V13H26V12H27V8H26V6H27V7H28V18H29V20H30V24H31V35H30V29H27V33H26V32H25V31H26V29H25V31H24V29H23V33H22V29H19V33H18V34H15V33H14V29H13V28H30V25H29V24H28V25H23V23H22V21H18V24H17V25H11V20H10V21H9V20H8V19H2V18H1V16H0V8H1V7H2V6H6V10H5V13H4V15H6V16H3V12H4V9H5V7H3V8H2V9H1V15H2V17H3V18H9V19H10V17H6V16H10V14H11V10H12V6H10V1H11V0H14V1ZM26 34H23V33H26V34ZM15 32H16V33H17V32H18V31H16V29H15V32ZM17 30H18V29H17V30ZM6 26H9V27H6V28H5V25H6V26ZM13 28H9V27H13V28ZM9 23H8V24H7V25H6V23H7V22H8V21H9V23ZM21 10H22V11H23V12H21V11H20V12H18V11H19V10H20V9H21V10ZM19 8H17V7H16V6H19V8ZM25 7H24V8H22V6H25V7ZM28 6H27V5H28V6ZM29 5H28V1H29V5Z" fill="black"/>
</svg>
