<svg width="29" height="22" viewBox="0 0 29 22" fill="none" xmlns="http://www.w3.org/2000/svg">
<path d="M1 21H3V20H6V21H4V22H0V20H1V21ZM9 18H8V19H9V20H16V19H17V17H18V18H19V19H18V20H17V21H8V20H6V19H7V17H8V16H9V18ZM2 20H1V19H2V20ZM20 14H21V13H27V12H28V13H29V14H22V15H21V16H22V19H21V20H19V19H20V18H21V17H20V15H19V12H20V14ZM3 19H2V18H3V19ZM4 18H3V17H4V18ZM16 14H17V17H16V15H15V16H14V17H13V18H10V16H11V17H12V16H13V15H14V14H15V13H16V14ZM2 14H5V13H6V16H5V17H4V15H0V14H1V13H2V14ZM11 15H10V16H9V14H10V13H11V15ZM4 13H2V12H4V13ZM12 13H11V12H12V13ZM3 9H4V10H6V11H5V12H4V11H3V10H1V9H2V8H3V9ZM22 10H24V11H27V12H23V11H21V8H22V10ZM5 8H3V7H4V6H5V8ZM21 8H20V7H21V8ZM20 7H19V6H20V7ZM6 6H5V5H6V6ZM19 6H18V5H19V6ZM11 5H6V4H10V3H11V5ZM19 3H17V4H18V5H16V4H15V3H16V2H19V3ZM21 1H20V2H19V1H14V2H13V3H11V2H12V1H13V0H21V1Z" fill="black"/>
</svg>
